<svg xmlns="http://www.w3.org/2000/svg" viewBox="0 0 640 640">
  <!-- Arabic letter Ayn (ع) - isolated form, stylized -->
  <!-- Upper loop of Ayn -->
  <path fill="#ffffff" d="
    M320 80
    C240 80 180 130 180 200
    C180 260 220 300 280 310
    C230 320 190 350 180 395
    C165 460 210 530 290 555
    L290 510
    C240 490 215 450 228 410
    C240 375 275 360 320 360
    C420 360 480 290 480 210
    C480 140 415 80 320 80Z
    M320 130
    C385 130 430 165 430 210
    C430 260 390 300 330 308
    L310 308
    C265 295 230 255 230 210
    C230 162 270 130 320 130Z
  "/>
  <!-- Lower tail of Ayn sweeping right -->
  <path fill="#ffffff" d="
    M290 555
    Q340 575 390 565
    Q470 548 500 490
    Q520 450 505 415
    Q490 385 460 375
    L460 420
    Q475 432 478 450
    Q483 475 462 497
    Q438 520 400 525
    Q355 530 290 510
    Z
  "/>
</svg>
