<svg xmlns="http://www.w3.org/2000/svg" viewBox="0 0 640 640">
  <!-- Om / Aum symbol (ॐ) -->
  <!-- Main body - lower curve (the 3 shape) -->
  <path fill="#ffffff" d="
    M200 430
    C200 390 230 360 270 355
    C240 340 220 310 225 278
    C232 235 272 210 315 215
    C360 220 392 255 388 295
    C385 320 370 340 348 352
    C390 358 420 390 420 430
    C420 480 378 520 320 520
    C262 520 200 480 200 430Z
    M320 475
    C352 475 372 458 372 432
    C372 408 354 390 328 387
    L312 387
    C286 390 268 408 268 432
    C268 458 288 475 320 475Z
  "/>
  <!-- Upper loop (top of the 3) -->
  <path fill="#ffffff" d="
    M248 350
    C248 295 278 258 325 255
    C355 253 380 270 388 295
    C388 295 388 295 388 295
    C388 255 365 218 328 210
    C278 200 238 235 232 278
    C229 306 238 330 248 350Z
  "/>
  <!-- Left hook (the curve going left) -->
  <path fill="#ffffff" d="
    M196 310
    C155 310 120 280 120 245
    C120 210 148 185 180 185
    C200 185 216 193 226 206
    L200 220
    C192 212 185 208 178 208
    C162 208 148 222 148 240
    C148 260 164 275 185 275
    C196 275 205 271 212 264
    L230 280
    C218 298 208 310 196 310Z
  "/>
  <!-- The curved tail at bottom left -->
  <path fill="#ffffff" d="
    M185 530
    C140 530 100 495 100 455
    C100 425 118 400 145 388
    L158 412
    C142 420 130 436 130 455
    C130 478 153 500 182 500
    C198 500 212 493 220 481
    L244 496
    C230 516 210 530 185 530Z
  "/>
  <!-- Dot above (bindu) -->
  <circle fill="#ffffff" cx="395" cy="148" r="42"/>
  <!-- Curved virama (the arc above) -->
  <path fill="none" stroke="#ffffff" stroke-width="38" stroke-linecap="round" fill-rule="evenodd"
        d="M270 130 Q320 90 390 110"/>
</svg>
