<svg xmlns="http://www.w3.org/2000/svg" viewBox="0 0 640 640">
  <!-- Greek letter Omega (Ω) as paths -->
  <!-- Main arc of Omega -->
  <path fill="#ffffff" d="
    M320 80
    C180 80 80 190 80 330
    C80 440 150 530 250 560
    L200 560
    C185 560 175 570 175 585
    C175 600 185 610 200 610
    L440 610
    C455 610 465 600 465 585
    C465 570 455 560 440 560
    L390 560
    C490 530 560 440 560 330
    C560 190 460 80 320 80Z
    M320 130
    C435 130 510 220 510 330
    C510 430 450 510 360 535
    L280 535
    C190 510 130 430 130 330
    C130 220 205 130 320 130Z
  "/>
</svg>
